<svg width="110" height="36" viewBox="0 0 110 36" fill="none" xmlns="http://www.w3.org/2000/svg">
<rect width="110" height="36" rx="8" fill="#FF0000"/>
<path d="M21 22.176C20.36 22.176 19.7893 22.0267 19.288 21.728C18.7867 21.4293 18.392 21.0027 18.104 20.448C17.816 19.8933 17.672 19.248 17.672 18.512C17.672 17.7547 17.8267 17.1093 18.136 16.576C18.4453 16.0427 18.8667 15.6373 19.4 15.36C19.944 15.072 20.552 14.928 21.224 14.928C21.7147 14.928 22.184 15.024 22.632 15.216C23.08 15.3973 23.4373 15.664 23.704 16.016L23.672 16.624V9.52H25.448V22H23.656V20.48L23.832 20.912C23.4907 21.2747 23.08 21.5787 22.6 21.824C22.1307 22.0587 21.5973 22.176 21 22.176ZM21.576 20.656C21.928 20.656 22.2373 20.5973 22.504 20.48C22.7813 20.3627 23.016 20.1973 23.208 19.984C23.4107 19.76 23.56 19.4987 23.656 19.2V17.76C23.5707 17.4827 23.4267 17.2373 23.224 17.024C23.032 16.8107 22.792 16.6453 22.504 16.528C22.216 16.4107 21.9067 16.352 21.576 16.352C21.192 16.352 20.84 16.4427 20.52 16.624C20.2107 16.8053 19.96 17.056 19.768 17.376C19.576 17.696 19.48 18.064 19.48 18.48C19.48 18.8853 19.576 19.2533 19.768 19.584C19.96 19.9147 20.216 20.176 20.536 20.368C20.856 20.56 21.2027 20.656 21.576 20.656ZM32.0315 22.176C31.5622 22.176 31.1088 22.0747 30.6715 21.872C30.2342 21.6693 29.8822 21.392 29.6155 21.04L29.7115 20.496V25.248H27.9195V15.104H29.4715L29.7115 16.672L29.5515 16.192C29.8822 15.8293 30.2822 15.5307 30.7515 15.296C31.2315 15.0507 31.7702 14.928 32.3675 14.928C33.0075 14.928 33.5782 15.0773 34.0795 15.376C34.5808 15.6747 34.9755 16.1013 35.2635 16.656C35.5622 17.2 35.7115 17.8453 35.7115 18.592C35.7115 19.3387 35.5515 19.9787 35.2315 20.512C34.9115 21.0453 34.4742 21.456 33.9195 21.744C33.3648 22.032 32.7355 22.176 32.0315 22.176ZM31.6795 20.752C32.0742 20.752 32.4368 20.6613 32.7675 20.48C33.1088 20.2987 33.3808 20.048 33.5835 19.728C33.7862 19.3973 33.8875 19.0293 33.8875 18.624C33.8875 18.1973 33.7915 17.824 33.5995 17.504C33.4182 17.1733 33.1675 16.9173 32.8475 16.736C32.5382 16.544 32.1915 16.448 31.8075 16.448C31.4555 16.448 31.1408 16.5067 30.8635 16.624C30.5862 16.7413 30.3515 16.912 30.1595 17.136C29.9675 17.3493 29.8182 17.6053 29.7115 17.904V19.264C29.7862 19.552 29.9142 19.808 30.0955 20.032C30.2768 20.256 30.5062 20.432 30.7835 20.56C31.0608 20.688 31.3595 20.752 31.6795 20.752ZM36.791 21.024C36.791 20.7467 36.8923 20.5173 37.095 20.336C37.2977 20.144 37.5217 20.048 37.767 20.048C37.991 20.048 38.2043 20.144 38.407 20.336C38.6097 20.5173 38.711 20.7467 38.711 21.024C38.711 21.3227 38.6097 21.5627 38.407 21.744C38.2043 21.9147 37.991 22 37.767 22C37.5217 22 37.2977 21.9147 37.095 21.744C36.8923 21.5627 36.791 21.3227 36.791 21.024ZM40.9178 22V16.8H39.7658V15.216H40.9178V12.56C40.9178 11.6213 41.1524 10.8853 41.6218 10.352C42.1018 9.808 42.7951 9.536 43.7018 9.536C43.9578 9.536 44.2404 9.57333 44.5498 9.648C44.8591 9.72267 45.1311 9.84 45.3658 10L44.6138 11.296C44.5178 11.1893 44.4058 11.1147 44.2778 11.072C44.1498 11.0293 44.0218 11.008 43.8938 11.008C43.5311 11.008 43.2431 11.1307 43.0298 11.376C42.8164 11.6213 42.7098 12.032 42.7098 12.608V15.216H44.5658V16.8H42.7098V22H40.9178ZM45.6858 15.232H47.4938V22H45.6858V15.232ZM45.6058 12.8C45.6058 12.5227 45.7124 12.2933 45.9258 12.112C46.1498 11.9307 46.3898 11.84 46.6458 11.84C46.9018 11.84 47.1311 11.9307 47.3338 12.112C47.5364 12.2933 47.6378 12.5227 47.6378 12.8C47.6378 13.0773 47.5364 13.3067 47.3338 13.488C47.1311 13.6587 46.9018 13.744 46.6458 13.744C46.3898 13.744 46.1498 13.6587 45.9258 13.488C45.7124 13.3067 45.6058 13.0773 45.6058 12.8ZM51.5668 15.232L51.7268 16.688L51.6628 16.496C51.8974 16.0267 52.2441 15.6533 52.7028 15.376C53.1721 15.088 53.7268 14.944 54.3668 14.944C55.0068 14.944 55.5348 15.1307 55.9508 15.504C56.3668 15.8773 56.5801 16.368 56.5908 16.976V22H54.7988V17.616C54.7881 17.2747 54.6921 17.0027 54.5108 16.8C54.3294 16.5867 54.0414 16.4747 53.6468 16.464C53.2841 16.464 52.9588 16.576 52.6708 16.8C52.3828 17.0133 52.1534 17.312 51.9828 17.696C51.8228 18.0693 51.7428 18.5013 51.7428 18.992V22H49.9508V15.232H51.5668ZM61.9081 22.176C61.2681 22.176 60.6868 22.0427 60.1641 21.776C59.6521 21.5093 59.2468 21.1147 58.9481 20.592C58.6495 20.0587 58.5001 19.4027 58.5001 18.624C58.5001 17.856 58.6548 17.2 58.9641 16.656C59.2841 16.1013 59.7001 15.6747 60.2121 15.376C60.7348 15.0773 61.3001 14.928 61.9081 14.928C62.5588 14.928 63.0815 15.056 63.4761 15.312C63.8815 15.568 64.1961 15.872 64.4201 16.224L64.3241 16.48L64.5001 15.232H66.1481V22H64.3561V20.352L64.5321 20.784C64.4895 20.848 64.4041 20.9547 64.2761 21.104C64.1481 21.2427 63.9721 21.3973 63.7481 21.568C63.5241 21.7387 63.2575 21.8827 62.9481 22C62.6495 22.1173 62.3028 22.176 61.9081 22.176ZM62.4041 20.704C62.7241 20.704 63.0121 20.6453 63.2681 20.528C63.5348 20.4107 63.7588 20.2453 63.9401 20.032C64.1321 19.8187 64.2708 19.5627 64.3561 19.264V17.792C64.2708 17.5147 64.1321 17.2747 63.9401 17.072C63.7481 16.8587 63.5135 16.6933 63.2361 16.576C62.9695 16.4587 62.6708 16.4 62.3401 16.4C61.9775 16.4 61.6415 16.4907 61.3321 16.672C61.0228 16.8533 60.7721 17.104 60.5801 17.424C60.3988 17.744 60.3081 18.112 60.3081 18.528C60.3081 18.9333 60.4041 19.3013 60.5961 19.632C60.7881 19.9627 61.0441 20.224 61.3641 20.416C61.6841 20.608 62.0308 20.704 62.4041 20.704ZM70.2386 15.232L70.3986 16.688L70.3346 16.496C70.5693 16.0267 70.916 15.6533 71.3746 15.376C71.844 15.088 72.3986 14.944 73.0386 14.944C73.6786 14.944 74.2066 15.1307 74.6226 15.504C75.0386 15.8773 75.252 16.368 75.2626 16.976V22H73.4706V17.616C73.46 17.2747 73.364 17.0027 73.1826 16.8C73.0013 16.5867 72.7133 16.4747 72.3186 16.464C71.956 16.464 71.6306 16.576 71.3426 16.8C71.0546 17.0133 70.8253 17.312 70.6546 17.696C70.4946 18.0693 70.4146 18.5013 70.4146 18.992V22H68.6226V15.232H70.2386ZM83.332 21.376C83.0333 21.6213 82.6653 21.8187 82.228 21.968C81.8013 22.1067 81.3693 22.176 80.932 22.176C80.1853 22.176 79.5293 22.032 78.964 21.744C78.3987 21.4453 77.956 21.0347 77.636 20.512C77.3267 19.9787 77.172 19.344 77.172 18.608C77.172 17.872 77.3373 17.2373 77.668 16.704C78.0093 16.1707 78.452 15.7653 78.996 15.488C79.5507 15.2 80.1373 15.056 80.756 15.056C81.3213 15.056 81.8227 15.136 82.26 15.296C82.6973 15.4453 83.076 15.6533 83.396 15.92L82.5 17.088C82.3293 16.9493 82.1053 16.8213 81.828 16.704C81.5613 16.576 81.2573 16.512 80.916 16.512C80.5533 16.512 80.2227 16.6027 79.924 16.784C79.636 16.9653 79.4013 17.216 79.22 17.536C79.0493 17.8453 78.964 18.2027 78.964 18.608C78.964 18.992 79.0547 19.344 79.236 19.664C79.4173 19.984 79.668 20.24 79.988 20.432C80.308 20.6133 80.676 20.704 81.092 20.704C81.3587 20.704 81.604 20.6667 81.828 20.592C82.0627 20.5067 82.2653 20.3947 82.436 20.256L83.332 21.376ZM88.4015 22.176C87.6015 22.176 86.9188 22.0213 86.3535 21.712C85.7882 21.4027 85.3562 20.976 85.0575 20.432C84.7588 19.8773 84.6095 19.2533 84.6095 18.56C84.6095 17.8773 84.7802 17.264 85.1215 16.72C85.4628 16.176 85.9215 15.744 86.4975 15.424C87.0842 15.0933 87.7295 14.928 88.4335 14.928C89.3615 14.928 90.1242 15.2 90.7215 15.744C91.3295 16.2773 91.7348 17.0347 91.9375 18.016L86.4815 19.856L86.0655 18.848L90.3215 17.328L89.9535 17.536C89.8362 17.216 89.6442 16.9387 89.3775 16.704C89.1215 16.4693 88.7588 16.352 88.2895 16.352C87.9162 16.352 87.5855 16.4427 87.2975 16.624C87.0095 16.7947 86.7802 17.04 86.6095 17.36C86.4495 17.6693 86.3695 18.0373 86.3695 18.464C86.3695 18.9013 86.4602 19.2853 86.6415 19.616C86.8228 19.9467 87.0682 20.2027 87.3775 20.384C87.6868 20.5547 88.0388 20.64 88.4335 20.64C88.7108 20.64 88.9775 20.592 89.2335 20.496C89.4895 20.4 89.7295 20.272 89.9535 20.112L90.7695 21.44C90.4175 21.664 90.0282 21.8453 89.6015 21.984C89.1855 22.112 88.7855 22.176 88.4015 22.176Z" fill="white"/>
</svg>
